<svg xmlns="http://www.w3.org/2000/svg" viewBox="0 0 72 72"><defs><style>.cls-1{fill:none;stroke:#9d8b59;stroke-miterlimit:10;stroke-width:4px;}.cls-2{fill:#9d8b59;}</style></defs><title>Recurso 7</title><g id="Capa_2" data-name="Capa 2"><g id="Capa_1-2" data-name="Capa 1"><rect class="cls-1" x="2" y="2" width="68" height="68" rx="7.75" ry="7.75"/><path class="cls-2" d="M43.21,46.74H28.84v6.83L43.21,51Zm0,0"/><path class="cls-2" d="M12,42h4.53a40.54,40.54,0,0,0,9.37-5.4q1-.81,2-1.68v-2a39.11,39.11,0,0,1-14.17,8.54q-.88.3-1.77.56Zm0,0"/><path class="cls-2" d="M63.89,42.05c-.18-.1-5.17-3-6.62-4a46.74,46.74,0,0,1-6.52-5.23q-.73-.71-1.43-1.46a42.24,42.24,0,0,1-6.11-8.55V20H41.43v2.48H40.1v-.58a.45.45,0,0,0-.12-.32.52.52,0,0,0-.72,0,.45.45,0,0,0-.12.32v.58H36.38v-.58a.45.45,0,0,0-.12-.32.52.52,0,0,0-.72,0,.45.45,0,0,0-.12.32v.58H32.66v-.58a.45.45,0,0,0-.12-.32.52.52,0,0,0-.72,0,.45.45,0,0,0-.12.32v.58h-1l0,0V20H28.84v3.93l-.13.2a67.37,67.37,0,0,1-7.19,8.07,76.79,76.79,0,0,1-7.74,6c-1.87,1.28-3.79,2.51-5.7,3.72a1.19,1.19,0,0,0-.56,1v1.81a1.19,1.19,0,0,0,1.19,1.19H63.33a1.19,1.19,0,0,0,1.19-1.19V43.11a1.22,1.22,0,0,0-.64-1.06Zm-35-10V42.9H9.18l.31-.19.17-.11a111.94,111.94,0,0,0,11.18-7.89,54.53,54.53,0,0,0,4.84-4.49c1-1,1.87-2.06,2.73-3.16l.45-.59V32ZM39.46,42.9H32.59v-12A3.42,3.42,0,0,1,33.16,29a63,63,0,0,0,6.31,5.48Zm0-10.24A61.14,61.14,0,0,1,34.23,28a3.44,3.44,0,0,1,5.23,2.93ZM43.21,42.9V37.17A38.17,38.17,0,0,0,50.76,41a50.17,50.17,0,0,0,6.62,1.85Zm7.64-3.42a31.24,31.24,0,0,1-4.21-2c-1-.57-2-1.18-3-1.82l-.45-.3V25.82a47.51,47.51,0,0,0,9.22,10.67q1.31,1.19,2.7,2.28a34.77,34.77,0,0,0,4.43,3l.11.07a58,58,0,0,1-8.82-2.37Zm0,0"/></g></g></svg>