<svg xmlns="http://www.w3.org/2000/svg" viewBox="0 0 72 72"><defs><style>.cls-1{fill:#9d8b59;}.cls-2{fill:none;stroke:#9d8b59;stroke-miterlimit:10;stroke-width:4px;}</style></defs><title>Recurso 4</title><g id="Capa_2" data-name="Capa 2"><g id="Capa_1-2" data-name="Capa 1"><path class="cls-1" d="M60.13,55.24h-1V30a.51.51,0,0,0-.37-.49l-22.1-6a.51.51,0,0,1-.37-.49V18.19c0-2.28-5.26-4.13-11.75-4.13s-11.75,1.85-11.75,4.13v37h-1a.51.51,0,0,0-.51.51v1.69a.51.51,0,0,0,.51.51H60.13a.51.51,0,0,0,.51-.51V55.74a.51.51,0,0,0-.51-.51ZM16.84,49.38a.51.51,0,0,1-.37.49,15.54,15.54,0,0,0-1.92.67.51.51,0,0,1-.71-.46V47.85a.51.51,0,0,1,.29-.46,14.06,14.06,0,0,1,2.06-.79.51.51,0,0,1,.65.49Zm0-5.42a.51.51,0,0,1-.37.49,15.58,15.58,0,0,0-1.92.67.51.51,0,0,1-.71-.46V42.43a.51.51,0,0,1,.29-.46,14.07,14.07,0,0,1,2.06-.78.51.51,0,0,1,.65.49Zm0-5.42a.51.51,0,0,1-.37.49,15.54,15.54,0,0,0-1.92.67.51.51,0,0,1-.71-.46V37a.51.51,0,0,1,.29-.46,14,14,0,0,1,2.06-.79.51.51,0,0,1,.65.49Zm0-5.42a.51.51,0,0,1-.37.49,15.54,15.54,0,0,0-1.92.67.51.51,0,0,1-.71-.46V31.59a.51.51,0,0,1,.29-.46,14.07,14.07,0,0,1,2.06-.79.51.51,0,0,1,.65.49Zm0-5.42a.51.51,0,0,1-.37.49,15.57,15.57,0,0,0-1.92.67.51.51,0,0,1-.71-.46V26.17a.51.51,0,0,1,.29-.46,14.07,14.07,0,0,1,2.06-.78.51.51,0,0,1,.65.49Zm0-5.42a.51.51,0,0,1-.37.49,15.57,15.57,0,0,0-1.92.67.51.51,0,0,1-.71-.46V20.75a.51.51,0,0,1,.29-.46,14.06,14.06,0,0,1,2.06-.78.51.51,0,0,1,.65.49Zm7.09,26.09a.51.51,0,0,1-.49.51,32.62,32.62,0,0,0-4.72.48.51.51,0,0,1-.6-.5V46.54a.51.51,0,0,1,.41-.5,32.36,32.36,0,0,1,4.88-.51.51.51,0,0,1,.52.51Zm0-5.42a.51.51,0,0,1-.49.51,32.62,32.62,0,0,0-4.72.48.51.51,0,0,1-.6-.5V41.12a.51.51,0,0,1,.41-.5,32.37,32.37,0,0,1,4.88-.51.51.51,0,0,1,.52.51Zm0-5.42a.51.51,0,0,1-.49.51,32.62,32.62,0,0,0-4.72.48.51.51,0,0,1-.6-.5V35.7a.51.51,0,0,1,.41-.5,32.37,32.37,0,0,1,4.88-.51.51.51,0,0,1,.52.51Zm0-5.42a.51.51,0,0,1-.49.51,32.62,32.62,0,0,0-4.72.48.51.51,0,0,1-.6-.5V30.28a.51.51,0,0,1,.41-.5,32.36,32.36,0,0,1,4.88-.51.51.51,0,0,1,.52.51Zm0-5.42a.51.51,0,0,1-.49.51,32.62,32.62,0,0,0-4.72.48.51.51,0,0,1-.6-.5V24.87a.51.51,0,0,1,.41-.5,32.33,32.33,0,0,1,4.88-.51.51.51,0,0,1,.52.51Zm0-5.42a.51.51,0,0,1-.49.51,32.59,32.59,0,0,0-4.72.48.51.51,0,0,1-.6-.5V19.45a.51.51,0,0,1,.41-.5,32.4,32.4,0,0,1,4.88-.51.51.51,0,0,1,.52.51ZM32.31,20a.51.51,0,0,1,.65-.49A14,14,0,0,1,35,20.3a.51.51,0,0,1,.29.46V23a.51.51,0,0,1-.71.46,15.53,15.53,0,0,0-1.92-.67.51.51,0,0,1-.37-.49ZM31,48.86a.51.51,0,0,1-.6.5,32.59,32.59,0,0,0-4.72-.48.51.51,0,0,1-.49-.51V46a.51.51,0,0,1,.52-.51,32.37,32.37,0,0,1,4.88.51.51.51,0,0,1,.41.5Zm0-5.42a.51.51,0,0,1-.6.5,32.62,32.62,0,0,0-4.72-.48.51.51,0,0,1-.49-.51V40.62a.51.51,0,0,1,.52-.51,32.34,32.34,0,0,1,4.88.51.51.51,0,0,1,.41.5ZM31,38a.51.51,0,0,1-.6.5A32.66,32.66,0,0,0,25.71,38a.51.51,0,0,1-.49-.51V35.2a.51.51,0,0,1,.52-.51,32.37,32.37,0,0,1,4.88.51.51.51,0,0,1,.41.5Zm0-5.42a.51.51,0,0,1-.6.5,32.62,32.62,0,0,0-4.72-.48.51.51,0,0,1-.49-.51V29.79a.51.51,0,0,1,.52-.51,32.34,32.34,0,0,1,4.88.51.51.51,0,0,1,.41.5Zm0-5.42a.51.51,0,0,1-.6.5,32.59,32.59,0,0,0-4.72-.48.51.51,0,0,1-.49-.51V24.37a.51.51,0,0,1,.52-.51,32.37,32.37,0,0,1,4.88.51.51.51,0,0,1,.41.5Zm0-5.42a.51.51,0,0,1-.6.5,32.59,32.59,0,0,0-4.72-.48.51.51,0,0,1-.49-.51V18.95a.51.51,0,0,1,.52-.51,32.37,32.37,0,0,1,4.88.51.51.51,0,0,1,.41.5Zm1.28,5.94V25.42a.51.51,0,0,1,.65-.49,14.08,14.08,0,0,1,2.06.78.51.51,0,0,1,.29.46v2.23a.51.51,0,0,1-.71.46,15.57,15.57,0,0,0-1.92-.67.51.51,0,0,1-.37-.49ZM48.73,55.24H40.93V50.56a.51.51,0,0,1,.51-.51h6.79a.51.51,0,0,1,.51.51Zm8-8.9a.51.51,0,0,1-.51.51H34.51a.51.51,0,0,1-.51-.51v-2a.51.51,0,0,1,.51-.51H56.24a.51.51,0,0,1,.51.51Zm0-5a.51.51,0,0,1-.51.51H34.51a.51.51,0,0,1-.51-.51v-2a.51.51,0,0,1,.51-.51H56.24a.51.51,0,0,1,.51.51Zm0-5a.51.51,0,0,1-.51.51H34.51A.51.51,0,0,1,34,36.3v-2a.51.51,0,0,1,.51-.51H56.24a.51.51,0,0,1,.51.51Zm0,0"/><rect class="cls-2" x="2" y="2" width="68" height="68" rx="7.75" ry="7.75"/></g></g></svg>