<svg xmlns="http://www.w3.org/2000/svg" viewBox="0 0 32.5 34.16"><defs><style>.cls-1{isolation:isolate;}.cls-2,.cls-3{fill:none;stroke:#fff;stroke-miterlimit:10;fill-rule:evenodd;}.cls-3{opacity:0.85;mix-blend-mode:lighten;}.cls-4{fill:#333;}</style></defs><title>Recurso 14</title><g class="cls-1"><g id="Capa_2" data-name="Capa 2"><g id="Capa_1-2" data-name="Capa 1"><g id="Desplegable_fin"><path class="cls-2" d="M30.51.5H2A1.49,1.49,0,0,0,.5,2V32.17A1.49,1.49,0,0,0,2,33.66H30.51A1.49,1.49,0,0,0,32,32.17V2A1.49,1.49,0,0,0,30.51.5Zm1,31.67a1,1,0,0,1-1,1H2a1,1,0,0,1-1-1V2A1,1,0,0,1,2,1H30.51a1,1,0,0,1,1,1V32.17Z"/><path class="cls-3" d="M30.51,1H2A1,1,0,0,0,1,2V32.17H1a1,1,0,0,0,1,1H30.51a1,1,0,0,0,1-1h0V2A1,1,0,0,0,30.51,1Z"/><polygon class="cls-4" points="11.12 28.07 11.12 5.51 24.64 16.79 11.12 28.07"/></g></g></g></g></svg>