<svg xmlns="http://www.w3.org/2000/svg" viewBox="0 0 36.47 36.47"><defs><style>.cls-1{fill:none;stroke:#58aa99;stroke-miterlimit:10;}.cls-2{fill:#58aa99;}</style></defs><title>Recurso 3</title><g id="Capa_2" data-name="Capa 2"><g id="Capa_1-2" data-name="Capa 1"><rect class="cls-1" x="0.5" y="0.5" width="35.47" height="35.47" rx="7.5" ry="7.5"/><path class="cls-2" d="M27,25.4v.73a.53.53,0,0,0,0,.09c-.26,2-1.66,3.2-3.3,2.93A3.26,3.26,0,0,1,21.29,26a.28.28,0,0,0-.15-.27l-7.07-4.06a.24.24,0,0,0-.3,0,2.46,2.46,0,0,1-1.17.43,2.87,2.87,0,0,1-2.94-2.2c-.08-.27-.13-.56-.19-.84s0-.49,0-.73a1,1,0,0,0,0-.13c.31-2.53,2.78-3.78,4.53-2.29a.2.2,0,0,0,.27,0q3.3-1.9,6.61-3.79c.24-.14.44-.26.4-.63a.38.38,0,0,1,0-.08,3.18,3.18,0,0,1,2.51-2.91,2.78,2.78,0,0,1,2.92,1.89A9.72,9.72,0,0,1,27,11.53v.73a1,1,0,0,0,0,.13c-.3,2.47-2.71,3.74-4.45,2.34a.23.23,0,0,0-.31,0l-6.88,4a.79.79,0,0,0-.15.16.79.79,0,0,0,.15.16l6.88,4a.23.23,0,0,0,.31,0c1.53-1.23,3.66-.41,4.29,1.65C26.94,24.85,27,25.13,27,25.4Z"/></g></g></svg>