<svg xmlns="http://www.w3.org/2000/svg" viewBox="0 0 44.75 44.75"><defs><style>.cls-1{fill:none;stroke:#fff;stroke-miterlimit:10;}.cls-2{fill:#fff;}</style></defs><title>Recurso 1</title><g id="Capa_2" data-name="Capa 2"><g id="Capa_1-2" data-name="Capa 1"><rect class="cls-1" x="0.5" y="0.5" width="43.75" height="43.75" rx="7.5" ry="7.5"/><path class="cls-2" d="M33.25,31.16v.92a.66.66,0,0,0,0,.12c-.33,2.45-2.08,4-4.13,3.66a4.08,4.08,0,0,1-3-4,.35.35,0,0,0-.19-.34L17,26.44a.3.3,0,0,0-.37,0,3.08,3.08,0,0,1-1.46.54,3.6,3.6,0,0,1-3.68-2.75c-.1-.34-.16-.7-.24-1s0-.61,0-.92a1.28,1.28,0,0,0,0-.17c.38-3.16,3.48-4.73,5.66-2.86a.25.25,0,0,0,.34,0q4.13-2.38,8.27-4.74c.3-.17.55-.33.5-.79a.47.47,0,0,1,0-.1A4,4,0,0,1,29.21,10a3.48,3.48,0,0,1,3.65,2.36,12.16,12.16,0,0,1,.39,1.45v.92a1.22,1.22,0,0,0,0,.16c-.38,3.09-3.38,4.68-5.56,2.93a.29.29,0,0,0-.38,0l-8.61,5a1,1,0,0,0-.19.2,1,1,0,0,0,.19.2l8.61,5a.29.29,0,0,0,.38,0c1.91-1.54,4.58-.52,5.37,2.07C33.12,30.46,33.17,30.81,33.25,31.16Z"/></g></g></svg>