<svg xmlns="http://www.w3.org/2000/svg" viewBox="0 0 32.5 34.16"><defs><style>.cls-1{isolation:isolate;}.cls-2,.cls-3{fill:none;stroke:#fff;stroke-miterlimit:10;fill-rule:evenodd;}.cls-3{opacity:0.85;mix-blend-mode:lighten;}.cls-4{fill:#333;}</style></defs><title>Recurso 13</title><g class="cls-1"><g id="Capa_2" data-name="Capa 2"><g id="Capa_1-2" data-name="Capa 1"><g id="Desplegable_fin"><path class="cls-2" d="M2,33.66H30.51A1.49,1.49,0,0,0,32,32.17V2A1.49,1.49,0,0,0,30.51.5H2A1.49,1.49,0,0,0,.5,2V32.17A1.49,1.49,0,0,0,2,33.66ZM1,2A1,1,0,0,1,2,1H30.51a1,1,0,0,1,1,1V32.17a1,1,0,0,1-1,1H2a1,1,0,0,1-1-1V2Z"/><path class="cls-3" d="M2,33.16H30.51a1,1,0,0,0,1-1V2h0a1,1,0,0,0-1-1H2A1,1,0,0,0,1,2H1V32.17A1,1,0,0,0,2,33.16Z"/><polygon class="cls-4" points="21.38 6.09 21.38 28.64 7.86 17.37 21.38 6.09"/></g></g></g></g></svg>