<svg xmlns="http://www.w3.org/2000/svg" viewBox="0 0 72 72"><defs><style>.cls-1{fill:none;stroke:#9d8b59;stroke-miterlimit:10;stroke-width:4px;}.cls-2{fill:#9d8b59;}</style></defs><title>Recurso 5</title><g id="Capa_2" data-name="Capa 2"><g id="Capa_1-2" data-name="Capa 1"><rect class="cls-1" x="2" y="2" width="68" height="68" rx="7.75" ry="7.75"/><path class="cls-2" d="M62.48,59.28l-5-17.6a1.26,1.26,0,0,0-1.21-.91H54.08v9a3.79,3.79,0,0,1-3.78,3.78H21.78A3.79,3.79,0,0,1,18,49.79l0,0s0,0,0,0v-9H15.83a1.26,1.26,0,0,0-1.21.91l-5,17.6a1.26,1.26,0,0,0,1.21,1.61H61.27a1.26,1.26,0,0,0,1.21-1.61Zm0,0"/><path class="cls-2" d="M18.33,31.55,36,16.34,53.7,31.55a1.89,1.89,0,0,0,2.47-2.87L37.25,12.41a1.89,1.89,0,0,0-2.47,0L15.86,28.68a1.89,1.89,0,1,0,2.47,2.87Zm0,0"/><path class="cls-2" d="M35.22,18.75,20.94,31a1.27,1.27,0,0,0-.44,1l0,17.78A1.26,1.26,0,0,0,21.73,51l28.51,0a1.26,1.26,0,0,0,1.27-1.26l0-17.78a1.26,1.26,0,0,0-.44-1L36.87,18.75a1.26,1.26,0,0,0-1.65,0Zm-.48,26.72a1.26,1.26,0,0,1-1.26,1.26H29.06a1.26,1.26,0,0,1-1.26-1.26V41a1.26,1.26,0,0,1,1.27-1.26h4.41a1.26,1.26,0,0,1,1.26,1.26Zm0-9.46a1.26,1.26,0,0,1-1.26,1.26H29.07A1.26,1.26,0,0,1,27.81,36V31.58a1.26,1.26,0,0,1,1.27-1.26H33.5a1.26,1.26,0,0,1,1.26,1.26Zm2.53-4.41a1.26,1.26,0,0,1,1.26-1.26H43a1.26,1.26,0,0,1,1.26,1.26V36a1.26,1.26,0,0,1-1.26,1.26H38.53A1.26,1.26,0,0,1,37.27,36Zm0,9.46a1.26,1.26,0,0,1,1.26-1.26h4.41a1.26,1.26,0,0,1,1.26,1.26v4.42a1.26,1.26,0,0,1-1.26,1.26H38.52a1.26,1.26,0,0,1-1.26-1.26Zm0,0"/></g></g></svg>