<svg xmlns="http://www.w3.org/2000/svg" viewBox="0 0 72 72"><defs><style>.cls-1{fill:none;stroke:#9d8b59;stroke-miterlimit:10;stroke-width:4px;}.cls-2{fill:#9d8b59;}</style></defs><title>Recurso 6</title><g id="Capa_2" data-name="Capa 2"><g id="Capa_1-2" data-name="Capa 1"><rect class="cls-1" x="2" y="2" width="68" height="68" rx="7.75" ry="7.75"/><path class="cls-2" d="M64.75,59.8h-2.3V8.9a.45.45,0,0,0-.69-.39l-3.41,2.06a.45.45,0,0,0-.22.38l0,1.47a.45.45,0,0,1-.23.39L47.66,18.58a.45.45,0,0,0-.23.39V52.22a.45.45,0,0,1-.45.45H44.93a.45.45,0,0,1-.45-.45V23.54h0V18.1a.45.45,0,0,0-.68-.39L40.18,19.8a.45.45,0,0,0-.23.38l0,1.43a.45.45,0,0,1-.23.39l-10,5.64a.45.45,0,0,0-.23.39V52.22a.45.45,0,0,1-.45.45H26.86a.45.45,0,0,1-.45-.45V27a.45.45,0,0,0-.7-.38l-3.14,2a.45.45,0,0,0-.21.37l0,1.34a.45.45,0,0,1-.23.39L11.62,36.66a.45.45,0,0,0-.23.39V59.8H9.09a.57.57,0,0,0-.57.57v1.53a.57.57,0,0,0,.57.57H64.75a.57.57,0,0,0,.57-.57V60.36a.57.57,0,0,0-.57-.57ZM15.59,58.44a.45.45,0,0,1-.45.45H14a.45.45,0,0,1-.45-.45V38.17a.45.45,0,0,1,.23-.4l1.13-.63a.45.45,0,0,1,.67.4ZM20,59.8H18V56a.45.45,0,0,1,.45-.45h1.13A.45.45,0,0,1,20,56ZM20,53a.45.45,0,0,1-.45.45H18.4a.45.45,0,0,1-.45-.45V36a.45.45,0,0,1,.23-.4L19.31,35a.45.45,0,0,1,.67.4Zm4.24,5.49a.45.45,0,0,1-.45.45H22.64a.45.45,0,0,1-.45-.45V33.65a.45.45,0,0,1,.23-.4l1.13-.63a.45.45,0,0,1,.67.4Zm9.39,0a.45.45,0,0,1-.45.45H32a.45.45,0,0,1-.45-.45V29.52a.45.45,0,0,1,.23-.4l1.13-.63a.45.45,0,0,1,.67.4Zm4.39,0a.45.45,0,0,1-.45.45H36.43a.45.45,0,0,1-.45-.45V27.35a.45.45,0,0,1,.23-.4l1.13-.63a.45.45,0,0,1,.67.4Zm4.24,0a.45.45,0,0,1-.45.45H40.67a.45.45,0,0,1-.45-.45V25a.45.45,0,0,1,.23-.4L41.58,24a.45.45,0,0,1,.67.4Zm9.34,0a.45.45,0,0,1-.45.45H50a.45.45,0,0,1-.45-.45V20.76a.45.45,0,0,1,.23-.4l1.13-.63a.45.45,0,0,1,.67.4Zm4.39,0a.45.45,0,0,1-.45.45H54.4a.45.45,0,0,1-.45-.45V18.58a.45.45,0,0,1,.23-.4l1.13-.63A.45.45,0,0,1,56,18Zm4.24,0a.45.45,0,0,1-.45.45H58.64a.45.45,0,0,1-.45-.45V16.23a.45.45,0,0,1,.23-.4l1.13-.63a.45.45,0,0,1,.67.4Zm0,0"/></g></g></svg>