<svg xmlns="http://www.w3.org/2000/svg" viewBox="0 0 72 72"><defs><style>.cls-1{fill:none;stroke:#9d8b59;stroke-miterlimit:10;stroke-width:4px;}.cls-2{fill:#9d8b59;}</style></defs><title>Recurso 8</title><g id="Capa_2" data-name="Capa 2"><g id="Capa_1-2" data-name="Capa 1"><rect class="cls-1" x="2" y="2" width="68" height="68" rx="7.75" ry="7.75"/><path class="cls-2" d="M31.69,33.48H33.9V35.7a2.12,2.12,0,0,0,4.25,0V33.48h2.22a2.12,2.12,0,1,0,0-4.25H38.15V27a2.12,2.12,0,0,0-4.25,0v2.22H31.69a2.12,2.12,0,1,0,0,4.25Zm0,0"/><path class="cls-2" d="M59.4,19.23H46.82V14.15A2.12,2.12,0,0,0,44.7,12H25.43a2.12,2.12,0,0,0-2.12,2.12v5.08H12.65a2.12,2.12,0,0,0-2.12,2.12V61a2.12,2.12,0,0,0,2.12,2.12H59.4A2.12,2.12,0,0,0,61.53,61V21.36a2.12,2.12,0,0,0-2.12-2.12Zm-31.85-3h15v2.95h-15ZM40.73,58.89H31.32V44h9.41Zm16.55,0H45v-17a2.12,2.12,0,0,0-2.12-2.12H29.2a2.12,2.12,0,0,0-2.12,2.12v17H14.77V23.48h42.5V58.89Zm0,0"/></g></g></svg>